{
	"asset":{
		"generator":"Khronos glTF Blender I/O v4.0.44",
		"version":"2.0"
	},
	"scene":0,
	"scenes":[
		{
			"name":"Scene",
			"nodes":[
				3
			]
		}
	],
	"nodes":[
		{
			"name":"Bone.001",
			"translation":[
				0,
				1.5670416355133057,
				0
			]
		},
		{
			"children":[
				0
			],
			"name":"Bone",
			"translation":[
				0,
				-0.03780275583267212,
				0
			]
		},
		{
			"mesh":0,
			"name":"Cube",
			"skin":0
		},
		{
			"children":[
				2,
				1
			],
			"name":"Armature",
			"translation":[
				0,
				-0.6804499626159668,
				0
			]
		}
	],
	"animations":[
		{
			"channels":[
				{
					"sampler":0,
					"target":{
						"node":1,
						"path":"translation"
					}
				},
				{
					"sampler":1,
					"target":{
						"node":1,
						"path":"rotation"
					}
				},
				{
					"sampler":2,
					"target":{
						"node":1,
						"path":"scale"
					}
				},
				{
					"sampler":3,
					"target":{
						"node":0,
						"path":"translation"
					}
				},
				{
					"sampler":4,
					"target":{
						"node":0,
						"path":"rotation"
					}
				},
				{
					"sampler":5,
					"target":{
						"node":0,
						"path":"scale"
					}
				}
			],
			"name":"ArmatureAction",
			"samplers":[
				{
					"input":8,
					"interpolation":"LINEAR",
					"output":9
				},
				{
					"input":10,
					"interpolation":"STEP",
					"output":11
				},
				{
					"input":10,
					"interpolation":"STEP",
					"output":12
				},
				{
					"input":10,
					"interpolation":"STEP",
					"output":13
				},
				{
					"input":8,
					"interpolation":"LINEAR",
					"output":14
				},
				{
					"input":10,
					"interpolation":"STEP",
					"output":15
				}
			]
		}
	],
	"materials":[
		{
			"doubleSided":true,
			"name":"Material",
			"pbrMetallicRoughness":{
				"baseColorFactor":[
					0.800000011920929,
					0.800000011920929,
					0.800000011920929,
					1
				],
				"metallicFactor":0,
				"roughnessFactor":0.5
			}
		}
	],
	"meshes":[
		{
			"name":"Mesh",
			"primitives":[
				{
					"attributes":{
						"POSITION":0,
						"NORMAL":1,
						"TEXCOORD_0":2,
						"TANGENT":3,
						"JOINTS_0":4,
						"WEIGHTS_0":5
					},
					"indices":6,
					"material":0
				}
			]
		}
	],
	"skins":[
		{
			"inverseBindMatrices":7,
			"joints":[
				1,
				0
			],
			"name":"Armature"
		}
	],
	"accessors":[
		{
			"bufferView":0,
			"componentType":5126,
			"count":2473,
			"max":[
				1.5635284185409546,
				2.4702186584472656,
				1.5635284185409546
			],
			"min":[
				-1.563528299331665,
				-0.8547690510749817,
				-1.563528299331665
			],
			"type":"VEC3"
		},
		{
			"bufferView":1,
			"componentType":5126,
			"count":2473,
			"type":"VEC3"
		},
		{
			"bufferView":2,
			"componentType":5126,
			"count":2473,
			"type":"VEC2"
		},
		{
			"bufferView":3,
			"componentType":5126,
			"count":2473,
			"type":"VEC4"
		},
		{
			"bufferView":4,
			"componentType":5121,
			"count":2473,
			"type":"VEC4"
		},
		{
			"bufferView":5,
			"componentType":5126,
			"count":2473,
			"type":"VEC4"
		},
		{
			"bufferView":6,
			"componentType":5123,
			"count":13056,
			"type":"SCALAR"
		},
		{
			"bufferView":7,
			"componentType":5126,
			"count":2,
			"type":"MAT4"
		},
		{
			"bufferView":8,
			"componentType":5126,
			"count":17,
			"max":[
				0.7083333333333334
			],
			"min":[
				0.041666666666666664
			],
			"type":"SCALAR"
		},
		{
			"bufferView":9,
			"componentType":5126,
			"count":17,
			"type":"VEC3"
		},
		{
			"bufferView":10,
			"componentType":5126,
			"count":2,
			"max":[
				0.7083333333333334
			],
			"min":[
				0.041666666666666664
			],
			"type":"SCALAR"
		},
		{
			"bufferView":11,
			"componentType":5126,
			"count":2,
			"type":"VEC4"
		},
		{
			"bufferView":12,
			"componentType":5126,
			"count":2,
			"type":"VEC3"
		},
		{
			"bufferView":13,
			"componentType":5126,
			"count":2,
			"type":"VEC3"
		},
		{
			"bufferView":14,
			"componentType":5126,
			"count":17,
			"type":"VEC4"
		},
		{
			"bufferView":15,
			"componentType":5126,
			"count":2,
			"type":"VEC3"
		}
	],
	"bufferViews":[
		{
			"buffer":0,
			"byteLength":29676,
			"byteOffset":0,
			"target":34962
		},
		{
			"buffer":0,
			"byteLength":29676,
			"byteOffset":29676,
			"target":34962
		},
		{
			"buffer":0,
			"byteLength":19784,
			"byteOffset":59352,
			"target":34962
		},
		{
			"buffer":0,
			"byteLength":39568,
			"byteOffset":79136,
			"target":34962
		},
		{
			"buffer":0,
			"byteLength":9892,
			"byteOffset":118704,
			"target":34962
		},
		{
			"buffer":0,
			"byteLength":39568,
			"byteOffset":128596,
			"target":34962
		},
		{
			"buffer":0,
			"byteLength":26112,
			"byteOffset":168164,
			"target":34963
		},
		{
			"buffer":0,
			"byteLength":128,
			"byteOffset":194276
		},
		{
			"buffer":0,
			"byteLength":68,
			"byteOffset":194404
		},
		{
			"buffer":0,
			"byteLength":204,
			"byteOffset":194472
		},
		{
			"buffer":0,
			"byteLength":8,
			"byteOffset":194676
		},
		{
			"buffer":0,
			"byteLength":32,
			"byteOffset":194684
		},
		{
			"buffer":0,
			"byteLength":24,
			"byteOffset":194716
		},
		{
			"buffer":0,
			"byteLength":24,
			"byteOffset":194740
		},
		{
			"buffer":0,
			"byteLength":272,
			"byteOffset":194764
		},
		{
			"buffer":0,
			"byteLength":24,
			"byteOffset":195036
		}
	],
	"buffers":[
		{
			"byteLength":195060,
			"uri":"gyroscope.bin"
		}
	]
}
